<svg width="26" height="24" viewBox="0 0 26 24" fill="none" xmlns="http://www.w3.org/2000/svg">
    <path d="M24.018 2.62361L21.9808 1.79023L21.9808 13.7354L25.16 6.17319C25.5304 5.49414 25.5982 4.80494 25.3633 4.10557C25.1284 3.40621 24.68 2.91223 24.018 2.62361Z"
          fill="#000"/>
    <path d="M19.3854 0.740783C18.8897 0.246929 18.2939 -6.29979e-07 17.5979 -6.90827e-07L15.4064 -8.82413e-07C15.5298 0.14404 15.6276 0.277793 15.6996 0.401258C15.7716 0.524722 15.8385 0.668763 15.9002 0.833381L20.1289 12.1921L20.1289 2.53101C20.1289 1.83138 19.881 1.23464 19.3854 0.740783Z"
          fill="#000"/>
    <path d="M13.3671 0.839646C12.8952 0.629697 12.4227 0.607032 11.9494 0.771649L2.01055 4.3521C1.54564 4.52186 1.20821 4.8421 0.998234 5.3128C0.788284 5.78351 0.765617 6.2555 0.930235 6.72878L6.88737 22.8099C7.05198 23.2832 7.37608 23.6227 7.85964 23.8285C8.34321 24.0343 8.82163 24.0549 9.29491 23.8903L19.1412 20.3407C19.6169 20.1709 19.9622 19.8507 20.177 19.38C20.3918 18.9093 20.4169 18.4373 20.2523 17.964L14.3261 1.85196C14.1586 1.38705 13.839 1.04962 13.3671 0.839646Z"
          fill="#000"/>
</svg>
