<svg xmlns="http://www.w3.org/2000/svg" width="23" height="20" xmlns:v="https://vecta.io/nano">
    <path fill="currentColor"
          d="M11.334 20c-.335 0-.661-.102-.937-.29-4.093-2.779-5.866-4.684-6.843-5.875C1.47 11.296.472 8.689.501 5.866.533 2.631 3.129 0 6.286 0c2.296 0 3.886 1.293 4.812 2.37.029.034.066.061.106.079s.085.028.13.028.089-.01.13-.028.077-.046.106-.079C12.496 1.292 14.086 0 16.382 0c3.157 0 5.753 2.631 5.785 5.867.028 2.823-.97 5.43-3.053 7.969-.978 1.191-2.75 3.096-6.843 5.875-.276.188-.603.289-.937.29z"/>
</svg>