<svg width="22" height="22" viewBox="0 0 22 22" fill="none" xmlns="http://www.w3.org/2000/svg">
<path d="M11.2121 7.17391C10.4554 7.17391 9.71565 7.39831 9.08646 7.81873C8.45726 8.23914 7.96686 8.83669 7.67727 9.53582C7.38768 10.2349 7.31191 11.0042 7.45955 11.7464C7.60718 12.4886 7.97158 13.1704 8.50666 13.7055C9.04175 14.2405 9.72349 14.6049 10.4657 14.7526C11.2079 14.9002 11.9772 14.8244 12.6763 14.5348C13.3754 14.2453 13.973 13.7549 14.3934 13.1257C14.8138 12.4965 15.0382 11.7567 15.0382 11C15.0352 9.98619 14.6311 9.01477 13.9142 8.29789C13.1973 7.58102 12.2259 7.17694 11.2121 7.17391ZM19.4726 11C19.4706 11.3575 19.4444 11.7145 19.3942 12.0684L21.7229 13.8916C21.8243 13.9753 21.8926 14.0924 21.9157 14.2219C21.9387 14.3514 21.9149 14.4848 21.8486 14.5984L19.6458 18.4016C19.5788 18.5142 19.4743 18.5995 19.3506 18.6426C19.2269 18.6858 19.092 18.6839 18.9695 18.6373L16.2315 17.5373C15.6613 17.9764 15.0374 18.3407 14.3749 18.6216L13.9655 21.5284C13.9426 21.6586 13.8751 21.7768 13.7747 21.8629C13.6743 21.9489 13.5472 21.9973 13.415 22H9.00925C8.87947 21.9975 8.75438 21.951 8.6544 21.8682C8.55443 21.7855 8.48546 21.6712 8.45877 21.5442L8.04938 18.6373C7.38501 18.3598 6.76064 17.9948 6.19277 17.5522L3.45472 18.6522C3.33233 18.6988 3.19743 18.7007 3.07374 18.6577C2.95006 18.6146 2.8455 18.5294 2.77846 18.4169L0.575593 14.6142C0.509286 14.5006 0.485531 14.3672 0.508574 14.2377C0.531616 14.1082 0.599954 13.9911 0.701376 13.9073L3.03003 12.0842C2.98036 11.7249 2.95416 11.3627 2.95159 11C2.95358 10.6425 2.97979 10.2855 3.03003 9.93157L0.701376 8.10843C0.599954 8.02469 0.531616 7.90761 0.508574 7.77812C0.485531 7.64862 0.509286 7.51516 0.575593 7.40156L2.77846 3.59843C2.84543 3.48585 2.94995 3.40049 3.07364 3.35736C3.19734 3.31423 3.33228 3.31611 3.45472 3.36265L6.19277 4.46265C6.76291 4.02361 7.38684 3.65926 8.04938 3.37843L8.45877 0.471565C8.48168 0.341358 8.5491 0.223149 8.6495 0.137139C8.74991 0.0511278 8.87707 0.00265375 9.00925 0H13.415C13.5448 0.00252595 13.6698 0.0489697 13.7698 0.13175C13.8698 0.214529 13.9388 0.328756 13.9655 0.455783L14.3749 3.36265C15.0401 3.64003 15.6652 4.00498 16.2339 4.44783L18.9695 3.34783C19.0919 3.30124 19.2268 3.29929 19.3505 3.34233C19.4742 3.38537 19.5787 3.47063 19.6458 3.58313L21.8486 7.38626C21.9149 7.49985 21.9387 7.63332 21.9157 7.76281C21.8926 7.89231 21.8243 8.00939 21.7229 8.09313L19.3942 9.91626C19.4438 10.2754 19.4701 10.6374 19.4726 11Z" fill="#000"/>
</svg>
